<svg width="500" height="501" viewBox="0 0 500 501" fill="none" xmlns="http://www.w3.org/2000/svg">
<path d="M313.763 81.7575C313.683 82.019 313.619 82.2804 313.541 82.5419C313.658 81.9798 313.763 81.4307 313.881 80.8686C313.841 81.1693 313.802 81.4569 313.763 81.7575ZM225.515 57.5876C225.567 57.2477 226.037 55.8098 227.07 52.4765C226.586 54.1497 226.103 55.9013 225.515 57.5876ZM305.684 30.0974C297.031 22.3588 287.501 15.1562 277.24 9.69217C267.109 4.29348 256.05 3.11702 245.867 9.10394C234.39 15.836 230.325 27.6922 226.6 39.8098C225.135 44.6072 223.881 49.5484 222.887 54.4634C222.73 55.2347 220.861 62.2543 221.684 63.47C222.613 64.8294 222.809 63.47 223.658 61.9536C224.403 60.6203 224.992 59.1432 225.501 57.6399C225.501 57.9667 226.743 55.0255 228.39 53.1039C229.698 51.5745 231.201 50.1235 232.796 48.9079C236.011 46.4634 239.841 44.6595 243.75 43.666C252.756 41.3915 261.175 44.1628 269.031 48.6464C277.332 53.3654 285.149 59.0517 292.417 65.2608C286.639 65.483 280.861 65.4961 275.083 65.4438C257.684 65.2869 240.142 64.3981 222.861 66.8425C194.709 70.8242 169.986 88.9144 159.384 106.738C156.214 112.066 152.098 121.139 150.057 131.943C149.12 136.907 147.764 146.776 149.435 147.256C150.146 147.461 151.168 145.896 151.427 145.513C156.67 137.725 184.052 115.738 189.647 111.65C211.308 95.8268 246.286 100.027 273.866 103.339C283.338 104.476 298.142 105.968 308.691 98.032C312.809 94.934 314.495 89.9928 316.155 85.3C319.541 75.7314 322.992 64.8817 323.436 54.6334C323.881 44.5811 312.443 36.1628 305.684 30.0974Z" fill="white"/>
<path d="M227.07 52.4759C226.586 54.1491 226.102 55.9008 225.514 57.587C225.566 57.2472 226.037 55.8093 227.07 52.4759Z" fill="white"/>
<path d="M313.88 80.8684C313.841 81.1691 313.802 81.4567 313.763 81.7573C313.684 82.0188 313.619 82.2802 313.54 82.5416C313.658 81.9795 313.763 81.4305 313.88 80.8684Z" fill="white"/>
<path d="M223.567 320.306C221.664 320.706 218.747 321.386 215.279 322.489C208.094 324.774 183.535 333.647 170.89 355.161C162.099 370.117 163.352 383.885 161.926 383.712C160.333 383.517 159.515 366.437 164.249 348.19C165.683 342.663 168.261 332.757 175.07 321.901C186.094 304.323 201.107 294.714 209.894 290.071C214.443 300.149 218.966 310.241 223.567 320.306Z" fill="white"/>
<path d="M339.136 269.796C338.677 280.032 335.24 290.894 331.855 300.463C330.18 305.143 328.508 310.097 324.39 313.195C315.554 319.849 299.998 318.398 289.567 318.502C282.638 318.568 268.43 316.842 252.023 317.182C249.933 312.829 247.685 308.032 245.24 302.738C242.116 295.968 238.992 289.195 235.894 282.411C236.783 282.267 237.672 282.136 238.56 282.005C255.84 279.561 273.384 280.45 290.77 280.608C296.56 280.659 302.338 280.646 308.116 280.424C300.848 274.215 293.03 268.528 284.73 263.809C276.874 259.326 268.456 256.555 259.449 258.829C255.541 259.822 251.711 261.613 248.495 264.058C246.9 265.287 245.397 266.724 244.09 268.267C242.443 270.188 241.201 273.13 241.201 272.803C240.678 274.306 240.089 275.77 239.345 277.104C238.508 278.633 238.312 279.979 237.384 278.633C236.547 277.417 238.417 270.398 238.573 269.626C239.58 264.711 240.822 259.757 242.299 254.973C246.024 242.842 250.077 230.999 261.553 224.254C271.75 218.28 282.794 219.443 292.939 224.855C303.201 230.319 312.73 237.522 321.384 245.26C328.142 251.313 339.58 259.744 339.136 269.796Z" fill="white"/>
<path d="M187.619 238.699C172.233 237.771 157.188 232.097 148.26 218.816C142.517 210.273 141.755 201.667 141.096 192.973C140.315 182.653 140.449 162.28 152.547 137.546C152.483 141.556 152.193 144.816 151.925 147.131C151.925 147.131 150.73 157.428 151.698 161.065C151.703 161.086 151.756 161.282 151.803 161.552C151.832 161.72 151.857 161.925 151.867 162.163C151.946 163.875 152.22 165.614 152.56 167.274C153.449 171.601 155.135 175.692 157.449 179.444C161.854 186.633 168.26 192.11 175.881 195.666C178.011 196.66 180.168 197.496 182.377 198.189C181.358 209.967 183.162 219.339 184.639 226.751C185.515 231.104 186.547 235.104 187.619 238.699Z" fill="white"/>
<path d="M355.71 185.601C355.004 188.228 352.05 203.653 348.743 204.032C344.194 204.555 339.763 204.607 335.423 204.267C313.985 205.195 292.73 208.829 272.233 215.274C252.861 221.365 234.377 231.065 214.612 235.901C213.828 234.189 213.044 232.463 212.259 230.738C207.344 219.927 202.05 211.98 199.619 200.986C210.638 201.274 221.854 199.104 232.259 195.888C247.462 191.182 261.972 184.699 276.926 179.405C270.913 175.47 264.978 171.483 259.096 167.757C245.619 159.235 231.227 151.378 215.37 148.424C208.691 147.195 201.867 146.816 195.227 148.476C192.285 149.222 189.344 150.32 186.782 151.967C185.423 152.855 182.73 154.842 181.723 157.352C181.357 158.28 180.861 159.156 180.482 160.071C179.959 161.3 179.645 162.11 179.187 162.15C179.004 162.163 178.782 162.006 178.508 161.588C177.671 160.372 179.553 153.352 179.71 152.581C180.704 147.666 181.972 142.738 183.423 137.94C185.933 129.692 188.22 120.28 195.606 114.986C200.9 111.195 207.514 109.64 213.946 109.457C230.821 109.012 247.488 116.908 261.684 125.248C288.129 140.777 314.142 163.927 345.514 166.385C349.972 166.189 354.431 166.11 358.887 166.15C360.299 166.163 356.076 184.228 355.71 185.601Z" fill="white"/>
<path d="M272.809 423.849C272.586 425.941 272.26 428.098 272.116 428.789C270.338 437.508 268.011 446.318 264.495 454.516C257.567 470.699 248.207 487.13 231.75 495.129C217.253 502.189 199.671 502.137 184.965 495.665C165.394 487.054 158.158 468.918 154.9 461.037C145.758 438.929 149.973 418.392 153.959 398.984C157.411 382.162 162.896 369.149 164.083 369.436C165.537 369.788 162.795 390.593 162.482 403.065C162.456 404.128 162.441 405.981 162.56 408.358C162.573 408.62 162.887 413.614 163.972 418.503C165.449 425.183 168.037 431.575 171.697 437.366C179.083 449.013 190.508 457.418 203.894 460.815C217.044 464.15 231.527 462.856 243.541 456.411C252.207 451.769 258.612 444.58 263.658 436.41C263.684 436.215 263.697 436.031 263.724 435.836C265.789 416.294 260.103 400.503 257.214 392.856C247.998 368.424 237.031 349.627 226.155 325.967C225.292 324.084 224.429 322.202 223.567 320.307C218.965 310.241 214.443 300.15 209.894 290.071C204.809 278.83 199.697 267.601 194.403 256.449C192.809 253.078 190.103 246.972 187.619 238.699C186.547 235.104 185.514 231.104 184.639 226.751C183.161 219.339 181.358 209.967 182.377 198.189C182.508 196.777 182.678 195.313 182.887 193.823C184.978 179.051 190.273 170.542 195.005 162.947C196.887 159.901 198.207 158.189 199.148 158.462C201.972 159.261 196.678 176.686 198.626 194.843C198.861 197.013 199.201 199.052 199.619 200.986C202.05 211.98 207.344 219.928 212.26 230.738C213.044 232.464 213.828 234.189 214.612 235.901C221.671 251.418 228.756 266.921 235.893 282.411C238.992 289.196 242.116 295.967 245.24 302.738C247.684 308.031 249.933 312.83 252.024 317.181C273.541 362.163 276.795 360.202 278.351 371.444C281.005 390.79 277.384 409.588 272.809 423.849Z" fill="white"/>
<path d="M177.625 375.908C176.411 375.942 175.2 375.549 174.191 374.886C173.212 374.242 172.382 373.324 171.824 372.301C171.471 371.655 171.235 370.965 171.103 370.244C172.17 368.539 173.394 366.991 174.705 365.502C176.311 367.311 177.68 369.342 178.611 371.587C179.096 372.757 179.456 373.983 179.662 375.237C179.116 375.631 178.518 375.882 177.625 375.908ZM189.588 339.292C189.174 339.179 188.352 342.041 188.021 343.272C188.149 342.77 188.208 342.546 188.215 342.494C188.178 342.578 187.957 343.268 187.739 343.686C187.459 344.22 187.137 344.733 186.807 345.234C186.097 346.32 185.303 347.348 184.462 348.337C182.698 350.42 180.728 352.308 178.826 354.259C178.242 354.856 177.66 355.463 177.096 356.082C176.565 356.655 176.051 357.239 175.553 357.841C174.875 358.66 174.235 359.508 173.648 360.397C171.74 363.286 170.567 366.544 169.664 369.865C168.318 374.826 166.654 382.954 173.343 384.967C175.774 385.699 177.962 384.716 179.148 382.51C180.944 379.175 181.869 374.973 182.348 371.244C182.868 367.216 181.881 363.373 179.932 359.987C180.025 359.894 180.111 359.8 180.201 359.707C181.991 357.827 183.71 355.848 185.065 353.626C186.858 350.684 187.947 347.391 188.805 344.072C188.918 343.647 190.128 339.435 189.588 339.292Z" fill="white"/>
<path d="M234.567 256.227C235.969 253.367 235.733 254.511 234.92 255.313C234.377 255.849 233.739 256.37 233.042 256.881C231.784 257.802 230.336 258.678 228.741 259.516C225.736 261.095 222.313 262.547 218.941 263.996C211.305 267.278 203.349 270.432 195.109 273.449C187.032 276.406 178.424 279.082 170.335 282.026C163.015 284.691 156.744 287.681 153.174 291.394C151.454 293.184 150.459 295.102 149.685 296.949C149.519 297.345 148.743 299.956 150.174 298.466C154.45 294.018 163.841 290.728 172.724 287.758C181.748 284.741 190.594 281.649 199.084 278.363C207.191 275.226 215.275 271.984 222.556 268.515C231.417 264.291 235.111 259.306 237.641 254.145C238.009 253.392 238.594 252.455 238.573 251.692C238.56 251.159 238.76 251.164 238.066 251.249C237.437 251.326 236.52 252.976 236.435 253.095C235.697 254.13 235.081 255.18 234.567 256.227Z" fill="white"/>
<path d="M326.172 42.4493C325.996 43.0402 325.81 43.7971 325.503 44.3487C325.516 44.3239 325.205 45.0193 325.167 44.6075C324.777 40.4337 324.024 36.2533 322.38 32.3775C321.726 30.8389 320.815 29.5029 319.755 28.2977C319.645 28.8219 319.513 29.3395 319.377 29.8559C319.312 30.0951 318.303 33.1186 318.184 33.0141C315.738 30.8441 314.137 27.9461 313.562 24.733C313.477 24.2585 313.672 23.6598 313.768 23.1905C313.941 22.3461 314.16 21.5082 314.406 20.682C314.583 20.0886 314.768 19.3343 315.073 18.784C315.087 18.7605 315.18 18.5395 315.27 18.4428V18.4402C315.545 17.6507 315.839 16.8886 315.921 16.9513C319.334 19.5225 322.61 22.1853 324.265 26.2441C325.851 30.1291 326.627 34.2337 327.015 38.3958C327.136 39.6912 326.533 41.2402 326.172 42.4493Z" fill="white"/>
<path d="M349.08 5.91644C348.793 7.46677 348.416 9.02886 347.851 10.5021C347.851 10.5086 347.528 11.4367 347.366 11.3936C347.203 11.3504 347.391 10.3753 347.391 10.3792C347.615 9.15827 346.27 7.75304 345.331 7.19356C343.926 6.35565 342.156 6.34651 340.607 6.72036C337.36 7.50337 335.105 9.81709 333.373 12.553C332.518 13.906 331.782 15.3387 331.17 16.8184C330.917 17.4262 330.694 18.0458 330.489 18.6707C330.427 18.8655 330.266 19.4563 330.216 19.6694C329.556 22.4236 329.21 25.5583 328.939 28.4955C328.802 30.0014 328.343 31.54 327.866 32.9661C327.811 33.1269 326.991 35.3321 327.11 34.0092C327.921 25.1491 329.587 15.7687 333.918 7.88637C335.808 4.44716 338.344 1.19618 342.347 0.231472C344.203 -0.216894 346.361 -0.086175 347.825 1.27069C349.179 2.52167 349.399 4.17919 349.08 5.91644Z" fill="white"/>
<path d="M192.919 52.2731C191.582 51.7999 190.22 51.2365 189.148 50.1032C189.084 50.0365 189.023 49.9672 188.961 49.8953C190.548 49.1084 192.339 49.1986 193.961 50.4823C194.87 51.1999 195.572 52.2313 196.007 53.4248C194.99 52.9516 193.906 52.6234 192.919 52.2731ZM199.521 57.0025C199.139 55.9594 198.553 55.1855 197.85 54.5829C198.047 53.6078 198.216 52.6261 198.351 51.647C198.606 49.8378 198.744 47.9659 198.361 46.1659C197.621 42.6601 194.978 40.1123 191.939 40.728C187.892 41.545 186.828 46.6927 186.016 50.8679C185.568 53.1738 185.156 55.562 186.338 57.6378C187.339 59.4051 188.983 60.2614 190.61 60.8679C190.926 60.9855 191.244 61.094 191.561 61.2025C190.055 62.6914 187.729 64.86 184.667 67.2065C179.263 71.3463 178.276 70.8953 173.96 74.1777C166.632 79.7516 163.101 85.8953 162.1 88.6966C161.542 90.2587 161.075 91.9293 160.671 93.9868C160.504 94.8431 160.274 95.7685 160.264 96.6522C160.259 97.0666 160.268 97.2744 160.334 97.3084C161.045 97.6849 164.617 87.2875 173.342 80.8051C175.455 79.2339 175.146 79.3019 182.147 75.3816C185.135 73.7084 187.935 71.6627 190.484 69.1215C192.33 67.2823 194.012 65.2444 195.262 62.8143C195.947 63.2731 196.591 63.8574 197.07 64.6195C197.322 65.0234 197.531 65.477 197.67 65.9555C197.708 66.0914 197.739 66.23 197.766 66.3685V66.3712C197.761 66.396 197.759 66.4169 197.753 66.4378C197.589 67.2967 197.357 68.2221 197.347 69.1032C197.344 69.1986 197.292 70.0731 197.525 69.6326C198.695 67.4143 199.195 64.4967 199.62 61.9646C199.901 60.2731 200.113 58.6248 199.521 57.0025Z" fill="white"/>
<path d="M320.955 153.772C329.448 158.004 337.364 162.917 344.707 168.51C345.45 169.076 348.395 162.445 348.002 163.322C349.93 159.035 351.474 154.513 352.835 150.078C354.206 145.61 355.534 141.105 356.373 136.536C356.606 135.262 357.826 131.606 356.546 130.631C349.201 125.037 341.286 120.125 332.793 115.892C331.236 115.117 325.1 132.906 324.665 134.325C323.293 138.794 321.965 143.299 321.126 147.866C320.934 148.913 319.662 153.127 320.955 153.772Z" fill="white"/>
</svg>
